{
	"asset":{
		"generator":"Khronos glTF Blender I/O v4.5.48",
		"version":"2.0"
	},
	"scene":0,
	"scenes":[
		{
			"name":"Scene",
			"nodes":[
				4,
				5
			]
		}
	],
	"nodes":[
		{
			"name":"black_mesh"
		},
		{
			"name":"white_mesh"
		},
		{
			"children":[
				0,
				1
			],
			"name":"RootNode"
		},
		{
			"children":[
				2
			],
			"name":"9aa8ca6330504923a09225ed0badc1f4.fbx",
			"rotation":[
				0.70710688829422,
				0,
				0,
				0.7071066498756409
			]
		},
		{
			"children":[
				3
			],
			"name":"Sketchfab_model",
			"rotation":[
				-0.70710688829422,
				0,
				0,
				0.7071066498756409
			]
		},
		{
			"mesh":0,
			"name":"model",
			"scale":[
				50,
				50,
				50
			],
			"translation":[
				-1.3353155851364136,
				-18.05763816833496,
				-32.786380767822266
			]
		}
	],
	"materials":[
		{
			"doubleSided":true,
			"emissiveFactor":[
				1,
				1,
				1
			],
			"emissiveTexture":{
				"index":0
			},
			"name":"model",
			"pbrMetallicRoughness":{
				"baseColorFactor":[
					0,
					0,
					0,
					1
				],
				"metallicFactor":0
			}
		}
	],
	"meshes":[
		{
			"name":"model",
			"primitives":[
				{
					"attributes":{
						"POSITION":0,
						"NORMAL":1,
						"TEXCOORD_0":2
					},
					"indices":3,
					"material":0
				}
			]
		}
	],
	"textures":[
		{
			"sampler":0,
			"source":0
		}
	],
	"images":[
		{
			"mimeType":"image/png",
			"name":"shaded",
			"uri":"shaded.png"
		}
	],
	"accessors":[
		{
			"bufferView":0,
			"componentType":5126,
			"count":20759,
			"max":[
				0.9537280201911926,
				0.6041659712791443,
				0.9500849843025208
			],
			"min":[
				-0.9538769721984863,
				0,
				-0.9042119979858398
			],
			"type":"VEC3"
		},
		{
			"bufferView":1,
			"componentType":5126,
			"count":20759,
			"type":"VEC3"
		},
		{
			"bufferView":2,
			"componentType":5126,
			"count":20759,
			"type":"VEC2"
		},
		{
			"bufferView":3,
			"componentType":5123,
			"count":109548,
			"type":"SCALAR"
		}
	],
	"bufferViews":[
		{
			"buffer":0,
			"byteLength":249108,
			"byteOffset":0,
			"target":34962
		},
		{
			"buffer":0,
			"byteLength":249108,
			"byteOffset":249108,
			"target":34962
		},
		{
			"buffer":0,
			"byteLength":166072,
			"byteOffset":498216,
			"target":34962
		},
		{
			"buffer":0,
			"byteLength":219096,
			"byteOffset":664288,
			"target":34963
		}
	],
	"samplers":[
		{
			"magFilter":9729,
			"minFilter":9987
		}
	],
	"buffers":[
		{
			"byteLength":883384,
			"uri":"Untitled.bin"
		}
	]
}
